<svg width="75" height="58" viewBox="0 0 75 58" fill="none" xmlns="http://www.w3.org/2000/svg">
<path d="M30.0301 3.67969C31.7645 3.78906 32.6708 3.88281 32.7489 3.96094C32.7958 3.96094 32.827 3.92188 32.8426 3.84375C34.5458 4.04688 36.202 4.99219 37.8114 6.67969C37.7958 6.71094 38.2489 7.71875 39.1708 9.70312C39.2489 9.95312 39.2723 10.1328 39.2411 10.2422C39.0223 10.8828 38.8583 11.2031 38.7489 11.2031L38.7254 11.8594L38.6317 12.3281C37.5536 14.0312 36.9989 14.9688 36.9676 15.1406L37.1551 15.0703H37.4833C37.5614 15.0703 37.7333 15.2812 37.9989 15.7031L37.9754 15.8203C37.8817 16.3203 37.577 16.5703 37.0614 16.5703H36.7567C36.5848 16.5703 36.5145 16.3203 36.5458 15.8203L36.5926 15.5391H36.4051L36.077 15.7031H34.8348C34.4442 16.1562 34.0458 16.3828 33.6395 16.3828C33.5926 16.0078 33.5379 15.8203 33.4754 15.8203C33.2254 15.8203 32.9051 16.4453 32.5145 17.6953C32.2489 18.1016 31.9989 18.3516 31.7645 18.4453C31.577 18.3672 31.5223 18.1797 31.6004 17.8828L31.6708 17.5078C31.7958 16.9453 31.9598 16.3203 32.1629 15.6328C32.2567 15.1953 32.077 14.25 31.6239 12.7969C31.577 12.7031 31.5848 12.5156 31.6473 12.2344L31.9051 11.3672C31.9989 10.9922 31.6317 10.8047 30.8036 10.8047H30.6864C29.2176 11.1641 26.7098 12.3281 23.1629 14.2969C22.5848 14.7812 21.3583 15.8828 19.4833 17.6016C18.9208 18.1953 17.952 19.6016 16.577 21.8203C15.1395 23.6016 14.0536 24.6641 13.3192 25.0078C13.0379 25.3203 12.5379 26.3281 11.8192 28.0312C10.9286 29.25 10.3817 30.3516 10.1786 31.3359H10.2489C10.3426 31.2578 10.5145 31.2188 10.7645 31.2188C10.7333 31.3594 10.7489 31.4297 10.8114 31.4297C10.1551 33.0391 9.73326 34.2578 9.54576 35.0859C9.53013 35.1797 9.66295 35.3359 9.9442 35.5547C10.0848 36.3203 10.1473 36.7578 10.1317 36.8672L9.99107 37.4531C9.92857 37.75 9.82701 38.0625 9.68638 38.3906C9.65513 38.5469 9.70201 39.2734 9.82701 40.5703C9.78013 40.8047 9.34263 41.3594 8.51451 42.2344C8.71763 42.6094 8.83482 42.7969 8.86607 42.7969C8.52232 43.2188 8.27232 43.7891 8.11607 44.5078L8.09263 45.0703C9.03013 44.3203 10.1708 43.6016 11.5145 42.9141C11.6395 42.9141 13.1786 41.8125 16.1317 39.6094C18.2098 38.9375 19.3583 38.0625 19.577 36.9844C20.0145 35.8594 20.3192 34.8828 20.4911 34.0547C20.5536 34.0547 20.5926 34.0234 20.6083 33.9609C20.2645 34.2266 19.5536 34.4141 18.4754 34.5234C18.3661 34.5234 17.9754 34.2734 17.3036 33.7734C16.8973 33.7734 16.452 33.4297 15.9676 32.7422C14.7958 32.3359 14.2958 31.7109 14.4676 30.8672C14.6239 30.6953 14.8192 30.375 15.0536 29.9062C15.0692 29.8281 14.8426 29.5234 14.3739 28.9922L14.3973 28.875L14.9129 28.7812H15.4051L15.4754 28.4297C15.5067 28.3203 15.1239 28.125 14.327 27.8438L13.2489 27.0938C13.2958 26.9219 13.5458 26.7969 13.9989 26.7188C14.7645 27.1719 15.7098 27.3984 16.8348 27.3984H17.0458C18.7645 26.8984 19.6708 26.6484 19.7645 26.6484H19.952C21.6395 27.0703 22.6161 27.2812 22.8817 27.2812C23.0692 27.2812 23.8583 27.0703 25.2489 26.6484C25.5301 26.6953 25.827 26.9453 26.1395 27.3984C26.327 27.5078 26.4676 27.5625 26.5614 27.5625C28.2801 27.5625 29.2098 27.2578 29.3504 26.6484C29.7567 26.5078 30.4754 26.4375 31.5067 26.4375C31.6629 26.1875 31.7801 26.0625 31.8583 26.0625H32.1395C32.0614 26.4062 32.6317 26.7812 33.8504 27.1875H34.0145L35.1864 27.0938C35.4364 27.1875 35.5926 27.3438 35.6551 27.5625V27.6797C35.4051 27.6953 35.1864 27.8125 34.9989 28.0312L34.952 28.2422C35.3739 28.3672 35.7411 28.4297 36.0536 28.4297H36.827C36.8895 28.4297 36.9129 28.4609 36.8973 28.5234L37.1083 28.4297H39.1239L39.6864 28.5234C39.7801 28.4297 40.2411 28.3594 41.0692 28.3125L41.1864 28.5938L41.1629 28.7109C41.1317 28.8672 40.1708 29.0156 38.2801 29.1562C35.3739 29.7969 33.8739 30.1172 33.7801 30.1172C33.4833 30.6172 33.1161 30.8672 32.6786 30.8672C31.8504 30.8672 30.9989 31.1172 30.1239 31.6172C30.202 31.6172 30.2723 31.7109 30.3348 31.8984C30.3192 31.9609 29.9598 32.1484 29.2567 32.4609C28.7723 33.5234 28.3426 34.0547 27.9676 34.0547C27.0458 35.0703 26.5301 35.8594 26.4208 36.4219C26.4989 36.625 26.5223 36.7734 26.4911 36.8672C26.2723 37.9453 25.7801 38.4844 25.0145 38.4844L24.9911 38.5781C24.3504 41.6094 23.327 43.4531 21.9208 44.1094C21.4364 44.5312 21.1161 45.1016 20.9598 45.8203L20.8661 46.2891C20.8036 46.5234 20.8739 46.7812 21.077 47.0625L21.0536 47.25C20.0692 49.3125 19.2723 50.3438 18.6629 50.3438C18.4286 50.3438 17.9989 51 17.3739 52.3125L16.9286 52.5938L16.7411 52.2188L16.8348 51.75C16.3817 51.75 16.077 52.125 15.9208 52.875C14.6551 54.6719 13.7254 56.1797 13.1317 57.3984H12.9442C12.8192 57.3984 12.7645 57.3359 12.7801 57.2109C12.952 56.4297 13.6004 54.8906 14.7254 52.5938L14.7489 51.6562C15.0145 51.2344 15.1629 50.9531 15.1942 50.8125C15.2411 50.6406 15.1395 50.2344 14.8895 49.5938C15.4676 48.0938 15.7958 47.1797 15.8739 46.8516L15.6395 46.9453H15.452C15.2958 46.9453 15.2333 46.8203 15.2645 46.5703C15.5145 46.2422 15.7801 45.7109 16.0614 44.9766C14.202 46.3359 13.2098 47.1172 13.0848 47.3203L13.0614 47.4141H13.1317C13.3817 47.3047 13.5926 47.25 13.7645 47.25H13.952L13.9051 47.4141C13.7645 47.4141 12.7333 48.0781 10.8114 49.4062C11.0301 49.4062 11.1629 49.5625 11.2098 49.875C10.5692 50.125 9.34263 50.3125 7.53013 50.4375C3.85826 50.4375 1.48326 48.9922 0.405134 46.1016C-0.110491 44.6328 -0.133929 42.7891 0.334821 40.5703L0.522321 40.1719C0.537946 40.1094 0.514509 40.0781 0.452009 40.0781L0.639509 39.6094L0.827009 38.7656L0.662946 37.2656C0.850446 36.3281 2.49107 32.6562 5.58482 26.25L5.60826 26.0625C5.63951 25.9219 5.67076 25.6641 5.70201 25.2891C6.34263 24.3984 6.78795 23.6172 7.03795 22.9453C7.35045 22.9453 7.78013 22.1641 8.32701 20.6016C8.53013 20.3672 9.29576 19.8984 10.6239 19.1953C12.3739 16.5078 13.3583 15.0625 13.577 14.8594C14.5301 13.9844 15.7489 12.7031 17.2333 11.0156C19.6395 9.09375 21.4051 7.55469 22.5301 6.39844C25.3895 4.58594 27.7254 3.67969 29.5379 3.67969H30.0301ZM26.3739 4.59375L26.2098 4.80469C26.3661 4.74219 26.4833 4.71094 26.5614 4.71094L26.5848 4.59375H26.3739ZM25.7411 12.5156L25.7176 12.6094H25.9286C25.9598 12.4531 26.1004 12.3594 26.3504 12.3281L26.3973 12.1172C26.1004 12.3828 25.8817 12.5156 25.7411 12.5156ZM35.0926 17.1328H35.4911C35.7723 17.5547 35.952 17.7656 36.0301 17.7656C35.9051 18.3438 35.5223 18.6328 34.8817 18.6328H34.6942C34.5379 18.4609 34.2176 18.3359 33.7333 18.2578V17.7656C34.077 17.625 34.2567 17.5391 34.2723 17.5078L34.6004 17.6953C34.6473 17.4141 34.8114 17.2266 35.0926 17.1328ZM31.9754 19.6641H32.5614L32.4208 20.2266L32.1161 20.4375H31.7176C31.7801 20.1719 31.7489 20.0391 31.6239 20.0391C31.7645 19.7891 31.8817 19.6641 31.9754 19.6641ZM32.6083 23.9062C32.5926 24 32.6708 24.0938 32.8426 24.1875C32.6239 24.5625 32.4598 24.75 32.3504 24.75H31.952V24.2578L31.9754 24.1875C32.0848 24 32.2958 23.9062 32.6083 23.9062ZM14.0692 24.0938L13.8348 24.375H13.952L14.1864 24.0938H14.0692ZM28.8114 24.6562C29.452 24.6562 29.7176 24.9062 29.6083 25.4062C29.5145 25.8125 29.2645 26.0938 28.8583 26.25H28.577C28.2489 26 28.1239 25.6797 28.202 25.2891L28.2489 25.125C28.2645 25.0312 28.452 24.875 28.8114 24.6562ZM12.3583 29.5547H12.7333C13.2489 29.5547 13.452 29.8047 13.3426 30.3047L13.3192 30.3984C12.9129 30.7422 12.5614 30.9219 12.2645 30.9375C11.8895 30.8281 11.7411 30.5781 11.8192 30.1875L11.8661 30.0234C12.1004 29.7109 12.2645 29.5547 12.3583 29.5547ZM28.2723 33.4922L28.2254 33.6797H28.3426L28.3661 33.4922H28.2723ZM12.2411 48.1641L12.2176 48.2812C12.2958 48.2812 12.4051 48.1797 12.5458 47.9766H12.452C12.327 48.0078 12.2567 48.0703 12.2411 48.1641ZM13.1317 48.4453L13.3192 48.9375C13.2723 49.0938 13.0536 49.2188 12.6629 49.3125C12.6786 49.2344 12.6551 49.1953 12.5926 49.1953C12.577 49.2734 12.5301 49.3125 12.452 49.3125C12.3895 49.0469 12.3739 48.8516 12.4051 48.7266C12.6708 48.5391 12.9129 48.4453 13.1317 48.4453ZM2.23326 49.1953C2.62388 49.1953 2.77232 49.4219 2.67857 49.875H2.56138C2.32701 49.9844 2.12388 50.0391 1.95201 50.0391C1.88951 49.8047 1.82701 49.6875 1.76451 49.6875C1.78013 49.5781 1.93638 49.4141 2.23326 49.1953Z" fill="#6C6C6C"/>
<path d="M47.7254 0H48.1708C48.3739 0.078125 48.4364 0.304688 48.3583 0.679688L48.3348 0.773438L47.7723 0.914062H47.6317C47.4911 0.914062 47.4442 0.804688 47.4911 0.585938L47.7254 0ZM48.8739 2.01562H49.202C49.0926 2.92188 49.327 4.125 49.9051 5.625C50.0458 6.39062 49.9989 7.28906 49.7645 8.32031C49.5926 9.17969 49.3973 9.96875 49.1786 10.6875C49.1473 11.1406 49.0614 11.6953 48.9208 12.3516C48.7176 13.3047 47.3348 15.5938 44.7723 19.2188H44.9833C45.952 18.8906 47.4364 17.875 49.4364 16.1719C50.077 15.125 50.6473 14.6016 51.1473 14.6016C51.7723 13.8516 52.3973 13.3672 53.0223 13.1484C53.1317 12.6328 53.6629 12.0703 54.6161 11.4609H55.0614L55.6004 11.5781C55.9911 11.2188 56.3192 10.8828 56.5848 10.5703L56.7489 9.89062C56.8895 9.20312 57.4129 8.67969 58.3192 8.32031C58.3817 8.00781 58.9833 7.47656 60.1239 6.72656C60.2333 6.21094 60.9129 5.625 62.1629 4.96875C63.6942 4.8125 65.3973 4.73438 67.2723 4.73438C67.6786 4.73438 68.2723 5.14062 69.0536 5.95312C69.3192 5.8125 69.5536 5.74219 69.7567 5.74219H69.9676C70.1239 5.74219 70.1708 6.07031 70.1083 6.72656C71.7333 5.91406 72.6864 5.50781 72.9676 5.50781H73.0614L72.9208 6.1875C72.6708 6.1875 71.8036 6.89844 70.3192 8.32031C68.6004 9.60156 67.6083 10.5781 67.3426 11.25C65.9051 12.2969 64.6239 12.8906 63.4989 13.0312C63.3114 13.2031 62.7567 13.8828 61.8348 15.0703L61.8114 15.6328L61.7879 15.7266C61.4286 16.5547 60.5223 17.4609 59.0692 18.4453C57.5536 18.6172 55.5145 19.9531 52.952 22.4531H52.7176C52.3895 22.4531 52.1083 22.3906 51.8739 22.2656C50.9676 22.9062 50.3426 23.5391 49.9989 24.1641C49.7176 24.1641 48.9129 24.7969 47.5848 26.0625C47.0223 26.2031 45.9598 26.7656 44.3973 27.75C44.0223 27.9688 43.2567 28.0781 42.1004 28.0781L42.0536 28.3125C42.5848 28.3125 43.0536 28.7266 43.4598 29.5547C43.7879 29.9297 45.6864 30.3438 49.1551 30.7969C50.0614 31.5 51.5614 32.2109 53.6551 32.9297C53.9833 33.2422 54.2801 33.7656 54.5458 34.5C55.3114 34.7969 56.1473 35.0547 57.0536 35.2734C57.8504 35.2109 58.4598 35.1797 58.8817 35.1797H59.1161C60.4754 35.6641 61.7801 36.5547 63.0301 37.8516C63.1551 38.7891 63.5145 39.4297 64.1083 39.7734C65.0301 40.3203 65.4442 40.8438 65.3504 41.3438C65.1786 41.4219 65.0536 41.4609 64.9754 41.4609C64.5067 41.3047 64.1786 41.2266 63.9911 41.2266L63.9208 41.5781C66.7333 44.0156 68.6083 45.4375 69.5458 45.8438L69.7567 46.3828L69.6864 46.7344L69.1004 46.8516H68.7489C68.9364 46.0234 66.9754 44.8672 62.8661 43.3828C62.3504 42.7734 61.8895 42.4688 61.4833 42.4688C61.3739 42.4688 60.9208 42.5 60.1239 42.5625C59.3739 41.8281 58.2333 41.3828 56.702 41.2266L56.6786 41.3438L56.8426 41.6719L56.7958 41.9062H56.6786C56.3192 41.9062 54.9833 41.3438 52.6708 40.2188C50.1551 39.3125 48.6786 38.8594 48.2411 38.8594H48.0067C47.6786 39.0781 47.3973 39.1875 47.1629 39.1875C46.6942 39.1875 45.0301 38.5234 42.1708 37.1953C41.8426 37.1953 40.6161 36.8203 38.4911 36.0703C37.8348 36.1484 37.3036 36.1875 36.8973 36.1875H36.6629C35.6004 36.6562 34.8504 37.9219 34.4129 39.9844C34.3348 40.3281 34.4208 40.9688 34.6708 41.9062C33.9208 43.3125 33.3114 44.7734 32.8426 46.2891C31.7176 46.9609 30.952 48.2344 30.5458 50.1094C30.2645 50.6406 30.0614 50.9062 29.9364 50.9062C29.7801 50.1406 29.6004 49.7578 29.3973 49.7578L26.5848 56.625C26.3973 57.2969 26.2176 57.6328 26.0458 57.6328H25.8114L25.8348 57.5156C26.6161 54.5781 27.0692 52.8203 27.1942 52.2422C27.3661 50.6641 27.4833 49.7266 27.5458 49.4297L27.827 48.0938C27.3895 47.3594 27.1942 46.8672 27.2411 46.6172C27.6786 45.3359 27.9833 44.2891 28.1551 43.4766L28.202 43.2422C28.2801 42.8672 28.2176 42.6406 28.0145 42.5625C27.8583 42.6562 27.702 42.7031 27.5458 42.7031L27.452 42.4688L27.4754 42.3516C28.0379 40.4922 28.8817 38.3203 30.0067 35.8359C30.0692 35.5703 30.1708 35.2344 30.3114 34.8281C30.202 34.8281 29.8817 34.6016 29.3504 34.1484C27.8348 35.0391 26.6161 35.6406 25.6942 35.9531L25.6473 35.7188L25.6942 35.5078C26.0536 35.4766 27.0301 34.7656 28.6239 33.375L28.6473 33.2578C28.4129 32.5859 28.3504 31.9844 28.4598 31.4531H27.452C27.452 30.7344 27.4676 30.2891 27.4989 30.1172C27.7489 30.0391 27.9129 29.8047 27.9911 29.4141C28.0536 29.1016 27.9129 28.8828 27.5692 28.7578C26.9286 29.0703 26.5223 29.2266 26.3504 29.2266L26.5379 28.4297C26.7567 28.1797 26.9598 27.875 27.1473 27.5156H27.0536C25.9598 28.0312 25.327 28.7109 25.1551 29.5547L24.6864 31.6875C24.6708 31.7969 24.5067 31.9141 24.1942 32.0391C23.9129 31.5859 23.8504 30.9844 24.0067 30.2344L24.0536 30C24.5536 27.6562 25.9442 26.1953 28.2254 25.6172H28.9051C29.3583 25.6172 29.952 25.6562 30.6864 25.7344L31.4129 25.4062C31.9286 25.4062 32.7879 25.4766 33.9911 25.6172C34.1004 25.0391 34.7411 23.5781 35.9129 21.2344C36.0848 20.0469 36.1942 19.3359 36.2411 19.1016C37.5379 16.5703 38.2801 14.8438 38.4676 13.9219C38.8583 12.1406 39.3504 11.25 39.9442 11.25C40.4442 10.8438 41.0223 10.2422 41.6786 9.44531C42.3504 9.27344 42.9208 8.89844 43.3895 8.32031C44.1239 7.03906 45.1942 6.39844 46.6004 6.39844L46.7411 6.1875L47.0458 4.73438H47.4911C47.4286 5 47.6395 5.25781 48.1239 5.50781L48.2645 4.82812C48.3583 4.4375 48.4754 3.54688 48.6161 2.15625L48.8739 2.01562ZM70.6942 2.34375C71.1786 2.57812 71.3661 2.92188 71.2567 3.375L71.1864 3.72656C70.6395 4.00781 70.202 4.14844 69.8739 4.14844C69.6551 4.08594 69.5848 3.86719 69.6629 3.49219L69.827 2.71875C69.9833 2.71875 70.2723 2.59375 70.6942 2.34375ZM45.1942 2.92969H45.7567C45.8661 3.50781 45.8895 3.91406 45.827 4.14844C45.6551 4.46094 45.3583 4.61719 44.9364 4.61719C44.3739 4.41406 44.1473 4.07031 44.2567 3.58594L44.3036 3.375C44.4911 3.07812 44.7879 2.92969 45.1942 2.92969ZM74.4442 3.25781H74.6786L74.6551 3.82031L74.6317 3.9375C74.6004 4.07812 74.5067 4.14844 74.3504 4.14844H73.8114V3.58594L73.8348 3.375L74.4442 3.25781ZM64.9286 12.1406L64.7411 12.3516H64.8817C65.0223 12.2891 65.1395 12.2578 65.2333 12.2578L65.2567 12.1406H64.9286ZM58.3895 18.4453H58.6239L58.6708 18.2109C58.5145 18.2266 58.4208 18.3047 58.3895 18.4453ZM25.2958 33.1406L25.5301 33.6094L25.4364 34.0312L24.9676 34.1484C24.6864 34.0391 24.5614 33.9219 24.5926 33.7969L24.6864 33.2578L25.2958 33.1406ZM64.8348 40.9922L64.8114 41.1328H65.0458L65.0692 40.9922H64.8348ZM56.3504 41.3438L56.3036 41.5781H56.4208L56.4676 41.3438H56.3504Z" fill="#6C6C6C"/>
</svg>
