<svg width="20" height="20" viewBox="0 0 20 20" fill="none" xmlns="http://www.w3.org/2000/svg">
<g clip-path="url(#clip0_729_216)">
<path d="M16.2997 8.847C16.2997 9.57626 15.9291 10.2969 15.2291 10.6999L6.73205 15.5851L5.57324 14.4263L12.6586 7.34108C13.4909 6.5087 14.8409 6.5087 15.6762 7.34108C16.0968 7.76459 16.2997 8.30572 16.2997 8.847Z" fill="#CDD4DF"/>
<path d="M19.3261 11.8204C19.3261 12.6615 18.8025 13.485 17.8878 13.7586L7.89368 16.7468L6.73193 15.585L16.3084 10.0821C17.0966 9.62626 18.0937 9.75853 18.7378 10.4028C19.1408 10.8056 19.3261 11.3174 19.3261 11.8204Z" fill="#E5E8EF"/>
<path d="M13.2822 5.83241C13.2822 6.37943 13.0763 6.92645 12.6587 7.3412L5.57336 14.4264L4.41455 13.2676L9.29988 4.77054C9.99984 3.553 11.6645 3.33241 12.6587 4.32348C13.0763 4.74125 13.2822 5.28826 13.2822 5.83241Z" fill="#E5E8EF"/>
<path d="M10.1882 2.68518C10.1882 3.03214 10.0999 3.37638 9.91761 3.69104L4.41468 13.2675L3.25293 12.1057L6.24114 2.11159C6.67937 0.649907 8.51761 0.185178 9.597 1.26169C9.98525 1.64988 10.1882 2.16458 10.1882 2.68518Z" fill="#CDD4DF"/>
<path d="M7.89387 16.747L6.27034 18.3675C4.99097 19.6469 2.91448 19.6469 1.63217 18.3675C0.993882 17.7264 0.67334 16.8851 0.67334 16.0469C0.67334 15.2087 0.993882 14.3675 1.63217 13.7292L3.25276 12.1057L7.89387 16.747Z" fill="#FFD80C"/>
<path d="M7.89245 16.747L6.27292 18.3666C4.99016 19.6493 2.91245 19.6474 1.6317 18.3666C1.4417 18.1766 1.28115 17.969 1.14795 17.7498C2.40915 18.5174 4.07764 18.3568 5.1704 17.2641L6.78994 15.6445L7.89245 16.747Z" fill="#FFBE00"/>
<path d="M2.21826 13.1396L3.25569 12.1052L7.88747 16.75L6.85004 17.7845L2.21826 13.1396Z" fill="#435E88"/>
<path d="M5.75146 16.6794L6.78738 15.6435L7.88984 16.746L6.85393 17.7819L5.75146 16.6794Z" fill="#33527D"/>
</g>
<defs>
<clipPath id="clip0_729_216">
<rect width="20" height="20" fill="white"/>
</clipPath>
</defs>
</svg>
