<svg width="20" height="20" viewBox="0 0 20 20" fill="none" xmlns="http://www.w3.org/2000/svg">
<path d="M0 5.86202V1.03447C0 0.760114 0.10899 0.496992 0.302993 0.30299C0.496996 0.108989 0.760121 0 1.03448 0H5.92759C6.33082 8.46626e-05 6.72127 0.141499 7.03103 0.399652L8.14069 1.32447C8.45064 1.58278 8.84136 1.7242 9.24483 1.72412H18.9655C19.2399 1.72412 19.503 1.83311 19.697 2.02711C19.891 2.22112 20 2.48424 20 2.7586V5.86202H0Z" fill="#E58B0A"/>
<path d="M1.72397 5.17237V4.1379C1.72397 3.86354 1.83296 3.60041 2.02696 3.40641C2.22097 3.21241 2.48409 3.10342 2.75845 3.10342H17.2412C17.5156 3.10342 17.7787 3.21241 17.9727 3.40641C18.1667 3.60041 18.2757 3.86354 18.2757 4.1379V5.17237H1.72397Z" fill="white"/>
<path d="M18.9655 4.82763H1.03448C0.463154 4.82763 0 5.2907 0 5.86202V16.8965C0 17.4678 0.463154 17.931 1.03448 17.931H18.9655C19.5368 17.931 20 17.4678 20 16.8965V5.86202C20 5.2907 19.5368 4.82763 18.9655 4.82763Z" fill="#FFB90B"/>
<path d="M15.5169 19.3104V9.73905C15.5169 9.60316 15.4902 9.46859 15.4382 9.34304C15.3861 9.21749 15.3099 9.10341 15.2138 9.00733L13.0614 6.85494C12.9653 6.75883 12.8512 6.6826 12.7257 6.63059C12.6001 6.57858 12.4656 6.55182 12.3297 6.55184H5.17208C4.98917 6.55184 4.81375 6.6245 4.68442 6.75383C4.55508 6.88317 4.48242 7.05858 4.48242 7.24149V19.3104C4.48242 19.4933 4.55508 19.6687 4.68442 19.798C4.81375 19.9273 4.98917 20 5.17208 20H14.8272C15.0102 20 15.1856 19.9273 15.3149 19.798C15.4442 19.6687 15.5169 19.4933 15.5169 19.3104Z" fill="#E9ECF4"/>
<path d="M15.4238 9.31036H13.7928C13.5184 9.31036 13.2553 9.20137 13.0613 9.00737C12.8673 8.81337 12.7583 8.55025 12.7583 8.27589V6.64831C12.8715 6.69773 12.974 6.76764 13.0614 6.85494L15.2138 9.00733C15.301 9.09548 15.3719 9.19774 15.4238 9.31036Z" fill="#C5CDDD"/>
<path d="M7.93103 13.1033C7.85642 13.1033 7.78383 13.0791 7.72414 13.0344L6.34483 11.9999C6.302 11.9678 6.26724 11.9261 6.2433 11.8782C6.21936 11.8304 6.2069 11.7776 6.2069 11.724C6.2069 11.6705 6.21936 11.6177 6.2433 11.5698C6.26724 11.5219 6.302 11.4803 6.34483 11.4482L7.72414 10.4137C7.76036 10.3865 7.80159 10.3668 7.84545 10.3555C7.88932 10.3443 7.93497 10.3418 7.9798 10.3482C8.02463 10.3546 8.06776 10.3698 8.10672 10.3929C8.14569 10.4159 8.17973 10.4464 8.2069 10.4827C8.23407 10.5189 8.25383 10.5601 8.26507 10.604C8.27631 10.6479 8.2788 10.6935 8.2724 10.7383C8.26599 10.7832 8.25082 10.8263 8.22775 10.8653C8.20468 10.9042 8.17416 10.9383 8.13793 10.9654L7.12655 11.724L8.13793 12.4827C8.19583 12.5261 8.2386 12.5866 8.26018 12.6557C8.28176 12.7248 8.28105 12.7989 8.25817 12.8676C8.23528 12.9362 8.19137 12.9959 8.13266 13.0382C8.07395 13.0806 8.00341 13.1033 7.93103 13.1033Z" fill="#1EAD6F"/>
<path d="M12.0686 13.1033C11.9963 13.1033 11.9257 13.0806 11.867 13.0383C11.8083 12.9959 11.7644 12.9362 11.7415 12.8676C11.7186 12.7989 11.7179 12.7248 11.7395 12.6557C11.7611 12.5866 11.8038 12.5261 11.8617 12.4827L12.8731 11.724L11.8617 10.9654C11.7886 10.9106 11.7402 10.8289 11.7273 10.7383C11.7143 10.6478 11.7379 10.5558 11.7928 10.4827C11.8476 10.4095 11.9293 10.3611 12.0199 10.3482C12.1104 10.3353 12.2024 10.3588 12.2755 10.4137L13.6548 11.4482C13.6977 11.4803 13.7324 11.5219 13.7564 11.5698C13.7803 11.6177 13.7928 11.6705 13.7928 11.724C13.7928 11.7776 13.7803 11.8304 13.7564 11.8783C13.7324 11.9261 13.6977 11.9678 13.6548 11.9999L12.2755 13.0344C12.2159 13.0793 12.1433 13.1035 12.0686 13.1033Z" fill="#1EAD6F"/>
<path d="M9.65492 13.4483C9.62656 13.4483 9.59831 13.4448 9.57078 13.438C9.48215 13.4158 9.40596 13.3593 9.35896 13.2809C9.31195 13.2025 9.29798 13.1087 9.32009 13.0201L10.0097 10.2615C10.0336 10.1746 10.0904 10.1005 10.1682 10.055C10.2459 10.0095 10.3384 9.99628 10.4258 10.0181C10.5132 10.0399 10.5886 10.095 10.6358 10.1717C10.6831 10.2484 10.6985 10.3405 10.6787 10.4284L9.98906 13.187C9.97046 13.2615 9.92748 13.3278 9.86694 13.3751C9.8064 13.4225 9.73178 13.4482 9.65492 13.4483Z" fill="#1EAD6F"/>
<path d="M13.4483 15.1723H6.55172C6.46027 15.1723 6.37256 15.136 6.30789 15.0713C6.24323 15.0066 6.2069 14.9189 6.2069 14.8275C6.2069 14.736 6.24323 14.6483 6.30789 14.5836C6.37256 14.519 6.46027 14.4826 6.55172 14.4826H13.4483C13.5397 14.4826 13.6274 14.519 13.6921 14.5836C13.7568 14.6483 13.7931 14.736 13.7931 14.8275C13.7931 14.9189 13.7568 15.0066 13.6921 15.0713C13.6274 15.136 13.5397 15.1723 13.4483 15.1723Z" fill="#C5CDDD"/>
<path d="M13.4483 16.8964H6.55172C6.46027 16.8964 6.37256 16.8601 6.30789 16.7954C6.24323 16.7307 6.2069 16.643 6.2069 16.5516C6.2069 16.4601 6.24323 16.3724 6.30789 16.3078C6.37256 16.2431 6.46027 16.2068 6.55172 16.2068H13.4483C13.5397 16.2068 13.6274 16.2431 13.6921 16.3078C13.7568 16.3724 13.7931 16.4601 13.7931 16.5516C13.7931 16.643 13.7568 16.7307 13.6921 16.7954C13.6274 16.8601 13.5397 16.8964 13.4483 16.8964Z" fill="#C5CDDD"/>
<path d="M11.0345 18.6205H6.55172C6.46027 18.6205 6.37256 18.5842 6.30789 18.5195C6.24323 18.4549 6.2069 18.3672 6.2069 18.2757C6.2069 18.1843 6.24323 18.0965 6.30789 18.0319C6.37256 17.9672 6.46027 17.9309 6.55172 17.9309H11.0345C11.1259 17.9309 11.2136 17.9672 11.2783 18.0319C11.343 18.0965 11.3793 18.1843 11.3793 18.2757C11.3793 18.3672 11.343 18.4549 11.2783 18.5195C11.2136 18.5842 11.1259 18.6205 11.0345 18.6205Z" fill="#C5CDDD"/>
</svg>
