<svg width="20" height="20" viewBox="0 0 20 20" fill="none" xmlns="http://www.w3.org/2000/svg">
<path d="M14.6192 9.89667C14.6174 10.3717 15.0474 10.2895 15.5752 10.0156C16.2745 9.65272 18.0047 9.30207 18.7352 10.5762C19.4657 11.8504 18.769 13.991 16.4756 14.4667C14.5376 14.8686 14.352 14.9253 14.0292 15.2142C13.7064 15.503 13.3708 15.4127 13.6265 14.8458C13.8821 14.279 14.25 13.974 15.5582 13.8041C16.8663 13.6342 18.1744 13.1167 18.1744 11.5831C18.1744 10.0496 14.9575 10.2588 14.5273 11.7002L14.318 10.6506L14.6192 9.89667Z" fill="#DCCBB5"/>
<path d="M8.37909 19.9999C12.4544 19.9999 15.7582 18.846 15.7582 17.4227C15.7582 15.9993 12.4544 14.8455 8.37909 14.8455C4.30373 14.8455 1 15.9993 1 17.4227C1 18.846 4.30373 19.9999 8.37909 19.9999Z" fill="#F0E5D2"/>
<path d="M8.37852 19.593C6.45207 19.593 4.6467 19.3202 3.29501 18.8249C2.13031 18.398 1.40674 17.8199 1.40674 17.3162C1.40674 16.8124 2.13031 16.2343 3.29501 15.8074C4.6467 15.3121 6.45206 15.0393 8.37852 15.0393C10.305 15.0393 12.1104 15.3121 13.4621 15.8074C14.6268 16.2343 15.3504 16.8124 15.3504 17.3162C15.3504 17.8199 14.6268 18.398 13.4621 18.8249C12.1104 19.3202 10.305 19.593 8.37852 19.593Z" fill="#DCCBB5"/>
<path d="M4.17614 15.9276C4.17614 15.9276 2.23934 16.2373 2.13827 17.3161C2.06583 18.0893 3.56455 18.7478 4.75376 19.0026C5.94298 19.2574 7.03025 19.2574 7.03025 19.2574C7.03025 19.2574 3.59852 18.4766 3.81938 17.423C4.04023 16.3693 6.62252 16.3523 6.62252 16.3523C6.62252 16.3523 5.26342 15.7747 4.17614 15.9276Z" fill="#F9E5CD"/>
<path d="M8.37881 18.7559C10.6607 18.7559 12.5105 18.2521 12.5105 17.6305C12.5105 17.009 10.6607 16.5051 8.37881 16.5051C6.09691 16.5051 4.24707 17.009 4.24707 17.6305C4.24707 18.2521 6.09691 18.7559 8.37881 18.7559Z" fill="#B2A594"/>
<path d="M14.5519 8.91357H8.37886H2.20577C2.20577 8.91357 1.3262 15.3032 5.91315 17.7496C5.91315 17.7496 6.75452 18.1319 8.37886 18.1319C10.0032 18.1319 10.8446 17.7496 10.8446 17.7496C15.4315 15.3032 14.5519 8.91357 14.5519 8.91357Z" fill="#DCCBB5"/>
<path d="M2.80958 9.14819C2.80958 9.14819 2.33935 14.9763 5.90103 17.743C5.90516 17.7452 5.90907 17.7476 5.9132 17.7498C5.9132 17.7498 6.41696 17.9784 7.39658 18.082C6.55928 17.0358 4.70937 14.1918 5.28763 10.0468L2.80958 9.14819Z" fill="#E6DED0"/>
<path d="M14.5521 8.91357H11.9436L8.82592 10.9164C11.2521 12.507 10.9661 16.5699 8.07812 18.1274C8.17526 18.1303 8.27549 18.1319 8.37901 18.1319C10.0033 18.1319 10.8447 17.7496 10.8447 17.7496C15.4317 15.3032 14.5521 8.91357 14.5521 8.91357Z" fill="#D1C1AD"/>
<path d="M8.37915 11.3301C11.7885 11.3301 14.5523 10.2482 14.5523 8.91357C14.5523 7.57897 11.7885 6.49707 8.37915 6.49707C4.96985 6.49707 2.20605 7.57897 2.20605 8.91357C2.20605 10.2482 4.96985 11.3301 8.37915 11.3301Z" fill="#F0E8DA"/>
<path d="M8.37909 10.9227C6.77975 10.9227 5.28231 10.6813 4.16251 10.243C3.19243 9.86324 2.61328 9.36624 2.61328 8.91353C2.61328 8.46077 3.19243 7.96378 4.16251 7.58403C5.28227 7.14573 6.77974 6.9043 8.37909 6.9043C9.97839 6.9043 11.4759 7.14573 12.5956 7.58403C13.5657 7.96378 14.1448 8.46081 14.1448 8.91353C14.1448 9.36624 13.5657 9.86324 12.5956 10.243C11.4759 10.6813 9.97839 10.9227 8.37909 10.9227Z" fill="#E5D3BD"/>
<path d="M4.16251 7.58399C3.19243 7.96374 2.61328 8.46074 2.61328 8.91349C2.61328 9.3662 3.19243 9.8632 4.16251 10.2429C4.31844 10.304 4.48238 10.3608 4.65221 10.4141C5.31305 10.0139 5.78134 9.50095 5.46742 8.91169C5.07907 8.18278 5.3549 7.57147 5.72029 7.14624C5.15002 7.25687 4.62384 7.40342 4.16251 7.58399Z" fill="#D1C1AD"/>
<path d="M8.37892 7.85327C6.77958 7.85327 5.2821 8.0947 4.16234 8.533C3.52466 8.78262 3.05594 9.08293 2.80957 9.38802C3.05594 9.6931 3.52466 9.99339 4.16234 10.243C5.28214 10.6813 6.77957 10.9228 8.37892 10.9228C9.97822 10.9228 11.4757 10.6813 12.5955 10.243C13.2331 9.99339 13.7018 9.6931 13.9482 9.38802C13.7018 9.08294 13.2331 8.78262 12.5955 8.533C11.4757 8.0947 9.97822 7.85327 8.37892 7.85327Z" fill="#50311D"/>
<path d="M12.5957 8.53289C11.9373 8.27517 11.1477 8.08616 10.2842 7.97363C10.4594 8.00425 10.4148 8.16193 10.5896 8.21214C10.768 8.26339 10.8189 8.20186 10.8763 8.35367C10.9336 8.50548 11.0929 8.47363 11.2203 8.46725C11.3477 8.46089 11.4305 8.44814 11.5261 8.56919C11.6217 8.69024 11.8574 8.70298 11.9975 8.69024C12.1377 8.67749 12.195 8.61378 12.3161 8.65201C12.4371 8.69024 12.5327 8.74119 12.6219 8.72209C12.7111 8.70298 12.8767 8.84366 12.813 8.98674C12.7493 9.12981 12.9531 9.23812 13.1061 9.27635C13.259 9.31457 13.3354 9.39739 13.3036 9.47384C13.2717 9.55029 13.1761 9.59489 13.1952 9.73505C13.2092 9.83776 13.1997 9.93405 13.1129 10.0104C13.4895 9.81603 13.7746 9.6032 13.9485 9.38791C13.7021 9.08283 13.2334 8.78252 12.5957 8.53289Z" fill="#9E6139"/>
<path d="M16.3654 9.95612C16.4077 9.82866 17.4987 9.72426 18.1237 10.1685C18.8049 10.6527 18.8202 11.2388 18.8032 11.4766C18.7863 11.7145 18.6164 11.3662 18.4889 11.0859C18.3615 10.8056 18.2256 10.4998 17.682 10.2704C17.1384 10.0411 16.2916 10.1784 16.3654 9.95612Z" fill="#FFF6E7"/>
<path d="M8.37892 7.85327C6.77958 7.85327 5.2821 8.0947 4.16234 8.533C3.52466 8.78262 3.05595 9.08293 2.80957 9.38802C3.01686 9.6447 3.38202 9.89785 3.8723 10.1204C3.85436 10.079 3.82561 10.0366 3.77899 10.0027C3.63883 9.9008 3.55601 9.84346 3.60697 9.72879C3.65794 9.61412 3.57513 9.49307 3.49867 9.38801C3.42222 9.28296 3.49228 9.17453 3.59424 9.14797C3.69617 9.12141 3.7089 8.94518 3.73437 8.8751C3.75987 8.80502 3.94697 8.62201 4.04019 8.6776C4.13339 8.7332 4.295 8.62664 4.40968 8.53744C4.52436 8.44825 4.71548 8.39729 4.79193 8.42277C4.86838 8.44825 4.91298 8.40366 5.00854 8.36543C5.1041 8.32721 5.26338 8.28899 5.36531 8.31824C5.46724 8.34752 5.55006 8.34632 5.64563 8.28261C5.74117 8.2189 5.83038 8.26987 5.93231 8.30173C6.03424 8.33358 6.19351 8.32084 6.27633 8.25076C6.35915 8.18068 6.47383 8.16794 6.55664 8.18705C6.63946 8.20617 6.72228 8.18705 6.81148 8.14246C6.90066 8.09786 6.89147 8.01411 6.98985 8.0469C7.08541 8.07874 7.17462 8.13609 7.20645 8.20617C7.23832 8.27625 7.28291 8.33358 7.44855 8.32721C7.61421 8.32085 7.72886 8.37181 7.74798 8.46737C7.76709 8.56294 7.95822 8.60115 8.07801 8.53745C8.19779 8.47374 8.27677 8.40366 8.34047 8.4164C8.40417 8.42915 8.60167 8.42278 8.66538 8.32721C8.72908 8.23165 8.82465 8.2189 8.91383 8.19343C9.00303 8.16795 9.0986 8.07875 9.15592 8.00231C9.20952 7.93083 9.36963 7.89161 9.3903 7.8868C9.05951 7.86503 8.72179 7.85327 8.37892 7.85327Z" fill="#9E6139"/>
<path d="M8.03977 8.3539C8.11864 8.3539 8.18258 8.32222 8.18258 8.28315C8.18258 8.24408 8.11864 8.2124 8.03977 8.2124C7.96091 8.2124 7.89697 8.24408 7.89697 8.28315C7.89697 8.32222 7.96091 8.3539 8.03977 8.3539Z" fill="#50311D"/>
<path d="M8.01362 8.30472C8.05081 8.30472 8.08096 8.28979 8.08096 8.27138C8.08096 8.25296 8.05081 8.23804 8.01362 8.23804C7.97643 8.23804 7.94629 8.25296 7.94629 8.27138C7.94629 8.28979 7.97643 8.30472 8.01362 8.30472Z" fill="#9E6139"/>
<path d="M7.3507 8.07275C7.39013 8.07275 7.4221 8.0569 7.4221 8.03735C7.4221 8.0178 7.39013 8.00195 7.3507 8.00195C7.31126 8.00195 7.2793 8.0178 7.2793 8.03735C7.2793 8.0569 7.31126 8.07275 7.3507 8.07275Z" fill="#50311D"/>
<path d="M7.33784 8.04799C7.35642 8.04799 7.37148 8.04053 7.37148 8.03132C7.37148 8.02211 7.35642 8.01465 7.33784 8.01465C7.31926 8.01465 7.3042 8.02211 7.3042 8.03132C7.3042 8.04053 7.31926 8.04799 7.33784 8.04799Z" fill="#9E6139"/>
<path d="M7.44249 8.23218C7.48193 8.23218 7.5139 8.21633 7.5139 8.19678C7.5139 8.17723 7.48193 8.16138 7.44249 8.16138C7.40306 8.16138 7.37109 8.17723 7.37109 8.19678C7.37109 8.21633 7.40306 8.23218 7.44249 8.23218Z" fill="#50311D"/>
<path d="M7.42915 8.20741C7.44773 8.20741 7.46279 8.19995 7.46279 8.19074C7.46279 8.18154 7.44773 8.17407 7.42915 8.17407C7.41057 8.17407 7.39551 8.18154 7.39551 8.19074C7.39551 8.19995 7.41057 8.20741 7.42915 8.20741Z" fill="#9E6139"/>
<path d="M11.1959 8.28637C11.2353 8.28637 11.2673 8.27053 11.2673 8.25097C11.2673 8.23142 11.2353 8.21558 11.1959 8.21558C11.1565 8.21558 11.1245 8.23142 11.1245 8.25097C11.1245 8.27053 11.1565 8.28637 11.1959 8.28637Z" fill="#50311D"/>
<path d="M11.1826 8.26186C11.2011 8.26186 11.2162 8.25439 11.2162 8.24519C11.2162 8.23598 11.2011 8.22852 11.1826 8.22852C11.164 8.22852 11.1489 8.23598 11.1489 8.24519C11.1489 8.25439 11.164 8.26186 11.1826 8.26186Z" fill="#9E6139"/>
<path d="M13.5367 9.26098C13.5762 9.26098 13.6081 9.24514 13.6081 9.22559C13.6081 9.20603 13.5762 9.19019 13.5367 9.19019C13.4973 9.19019 13.4653 9.20603 13.4653 9.22559C13.4653 9.24514 13.4973 9.26098 13.5367 9.26098Z" fill="#50311D"/>
<path d="M13.5234 9.23622C13.542 9.23622 13.557 9.22876 13.557 9.21955C13.557 9.21034 13.542 9.20288 13.5234 9.20288C13.5048 9.20288 13.4897 9.21034 13.4897 9.21955C13.4897 9.22876 13.5048 9.23622 13.5234 9.23622Z" fill="#9E6139"/>
<path d="M13.3766 9.11914C13.416 9.11914 13.448 9.10329 13.448 9.08374C13.448 9.06419 13.416 9.04834 13.3766 9.04834C13.3371 9.04834 13.3052 9.06419 13.3052 9.08374C13.3052 9.10329 13.3371 9.11914 13.3766 9.11914Z" fill="#50311D"/>
<path d="M13.3632 9.09462C13.3818 9.09462 13.3969 9.08716 13.3969 9.07795C13.3969 9.06874 13.3818 9.06128 13.3632 9.06128C13.3447 9.06128 13.3296 9.06874 13.3296 9.07795C13.3296 9.08716 13.3447 9.09462 13.3632 9.09462Z" fill="#9E6139"/>
<path d="M13.2081 9.08398C13.2476 9.08398 13.2795 9.06813 13.2795 9.04858C13.2795 9.02903 13.2476 9.01318 13.2081 9.01318C13.1687 9.01318 13.1367 9.02903 13.1367 9.04858C13.1367 9.06813 13.1687 9.08398 13.2081 9.08398Z" fill="#50311D"/>
<path d="M13.1948 9.05946C13.2134 9.05946 13.2284 9.052 13.2284 9.04279C13.2284 9.03359 13.2134 9.02612 13.1948 9.02612C13.1762 9.02612 13.1611 9.03359 13.1611 9.04279C13.1611 9.052 13.1762 9.05946 13.1948 9.05946Z" fill="#9E6139"/>
<path d="M7.78733 8.2123C7.8662 8.2123 7.93014 8.18062 7.93014 8.14155C7.93014 8.10248 7.8662 8.0708 7.78733 8.0708C7.70847 8.0708 7.64453 8.10248 7.64453 8.14155C7.64453 8.18062 7.70847 8.2123 7.78733 8.2123Z" fill="#50311D"/>
<path d="M7.76118 8.16336C7.79837 8.16336 7.82852 8.14843 7.82852 8.13002C7.82852 8.11161 7.79837 8.09668 7.76118 8.09668C7.72399 8.09668 7.69385 8.11161 7.69385 8.13002C7.69385 8.14843 7.72399 8.16336 7.76118 8.16336Z" fill="#9E6139"/>
<path d="M8.12298 8.15059C8.18335 8.15059 8.23229 8.12634 8.23229 8.09641C8.23229 8.06649 8.18335 8.04224 8.12298 8.04224C8.06261 8.04224 8.01367 8.06649 8.01367 8.09641C8.01367 8.12634 8.06261 8.15059 8.12298 8.15059Z" fill="#50311D"/>
<path d="M8.1023 8.11303C8.13075 8.11303 8.15382 8.10161 8.15382 8.08752C8.15382 8.07343 8.13075 8.06201 8.1023 8.06201C8.07385 8.06201 8.05078 8.07343 8.05078 8.08752C8.05078 8.10161 8.07385 8.11303 8.1023 8.11303Z" fill="#9E6139"/>
<path d="M6.14007 8.26656C6.20044 8.26656 6.24938 8.2423 6.24938 8.21238C6.24938 8.18246 6.20044 8.1582 6.14007 8.1582C6.0797 8.1582 6.03076 8.18246 6.03076 8.21238C6.03076 8.2423 6.0797 8.26656 6.14007 8.26656Z" fill="#50311D"/>
<path d="M6.11988 8.22875C6.14833 8.22875 6.17139 8.21733 6.17139 8.20324C6.17139 8.18915 6.14833 8.17773 6.11988 8.17773C6.09142 8.17773 6.06836 8.18915 6.06836 8.20324C6.06836 8.21733 6.09142 8.22875 6.11988 8.22875Z" fill="#9E6139"/>
<path d="M3.37716 9.60457C3.46061 9.60457 3.52825 9.57105 3.52825 9.5297C3.52825 9.48835 3.46061 9.45483 3.37716 9.45483C3.29372 9.45483 3.22607 9.48835 3.22607 9.5297C3.22607 9.57105 3.29372 9.60457 3.37716 9.60457Z" fill="#50311D"/>
<path d="M3.34952 9.55278C3.38884 9.55278 3.42072 9.53697 3.42072 9.51748C3.42072 9.49798 3.38884 9.48218 3.34952 9.48218C3.3102 9.48218 3.27832 9.49798 3.27832 9.51748C3.27832 9.53697 3.3102 9.55278 3.34952 9.55278Z" fill="#9E6139"/>
<path d="M3.18331 9.45491C3.26676 9.45491 3.3344 9.42139 3.3344 9.38004C3.3344 9.33869 3.26676 9.30518 3.18331 9.30518C3.09987 9.30518 3.03223 9.33869 3.03223 9.38004C3.03223 9.42139 3.09987 9.45491 3.18331 9.45491Z" fill="#50311D"/>
<path d="M3.15567 9.40312C3.195 9.40312 3.22687 9.38731 3.22687 9.36782C3.22687 9.34832 3.195 9.33252 3.15567 9.33252C3.11635 9.33252 3.08447 9.34832 3.08447 9.36782C3.08447 9.38731 3.11635 9.40312 3.15567 9.40312Z" fill="#9E6139"/>
<path d="M5.87005 8.20621C5.91667 8.20621 5.95446 8.18748 5.95446 8.16438C5.95446 8.14128 5.91667 8.12256 5.87005 8.12256C5.82343 8.12256 5.78564 8.14128 5.78564 8.16438C5.78564 8.18748 5.82343 8.20621 5.87005 8.20621Z" fill="#50311D"/>
<path d="M5.85422 8.17716C5.87618 8.17716 5.89399 8.16833 5.89399 8.15743C5.89399 8.14653 5.87618 8.1377 5.85422 8.1377C5.83226 8.1377 5.81445 8.14653 5.81445 8.15743C5.81445 8.16833 5.83226 8.17716 5.85422 8.17716Z" fill="#9E6139"/>
<path d="M3.41888 9.10196C3.4655 9.10196 3.50329 9.08324 3.50329 9.06014C3.50329 9.03704 3.4655 9.01831 3.41888 9.01831C3.37226 9.01831 3.33447 9.03704 3.33447 9.06014C3.33447 9.08324 3.37226 9.10196 3.41888 9.10196Z" fill="#50311D"/>
<path d="M3.40403 9.07267C3.42599 9.07267 3.44379 9.06383 3.44379 9.05294C3.44379 9.04204 3.42599 9.0332 3.40403 9.0332C3.38206 9.0332 3.36426 9.04204 3.36426 9.05294C3.36426 9.06383 3.38206 9.07267 3.40403 9.07267Z" fill="#9E6139"/>
<path d="M3.33392 9.27091C3.38053 9.27091 3.41832 9.25218 3.41832 9.22908C3.41832 9.20598 3.38053 9.18726 3.33392 9.18726C3.2873 9.18726 3.24951 9.20598 3.24951 9.22908C3.24951 9.25218 3.2873 9.27091 3.33392 9.27091Z" fill="#50311D"/>
<path d="M3.31858 9.2421C3.34054 9.2421 3.35834 9.23327 3.35834 9.22237C3.35834 9.21147 3.34054 9.20264 3.31858 9.20264C3.29661 9.20264 3.27881 9.21147 3.27881 9.22237C3.27881 9.23327 3.29661 9.2421 3.31858 9.2421Z" fill="#9E6139"/>
<path d="M3.35481 9.74399C3.41296 9.74399 3.4601 9.72063 3.4601 9.69182C3.4601 9.66301 3.41296 9.63965 3.35481 9.63965C3.29665 9.63965 3.24951 9.66301 3.24951 9.69182C3.24951 9.72063 3.29665 9.74399 3.35481 9.74399Z" fill="#50311D"/>
<path d="M3.33574 9.7079C3.36314 9.7079 3.38535 9.69688 3.38535 9.6833C3.38535 9.66971 3.36314 9.65869 3.33574 9.65869C3.30834 9.65869 3.28613 9.66971 3.28613 9.6833C3.28613 9.69688 3.30834 9.7079 3.33574 9.7079Z" fill="#9E6139"/>
<path d="M3.09905 9.57169C3.14567 9.57169 3.18346 9.55296 3.18346 9.52986C3.18346 9.50676 3.14567 9.48804 3.09905 9.48804C3.05244 9.48804 3.01465 9.50676 3.01465 9.52986C3.01465 9.55296 3.05244 9.57169 3.09905 9.57169Z" fill="#50311D"/>
<path d="M3.08274 9.54288C3.1047 9.54288 3.12251 9.53405 3.12251 9.52315C3.12251 9.51225 3.1047 9.50342 3.08274 9.50342C3.06077 9.50342 3.04297 9.51225 3.04297 9.52315C3.04297 9.53405 3.06077 9.54288 3.08274 9.54288Z" fill="#9E6139"/>
<path d="M6.29867 8.11033C6.33472 8.11033 6.36395 8.09585 6.36395 8.07799C6.36395 8.06013 6.33472 8.04565 6.29867 8.04565C6.26262 8.04565 6.2334 8.06013 6.2334 8.07799C6.2334 8.09585 6.26262 8.11033 6.29867 8.11033Z" fill="#50311D"/>
<path d="M6.28659 8.0879C6.30356 8.0879 6.31732 8.08107 6.31732 8.07264C6.31732 8.06421 6.30356 8.05737 6.28659 8.05737C6.26962 8.05737 6.25586 8.06421 6.25586 8.07264C6.25586 8.08107 6.26962 8.0879 6.28659 8.0879Z" fill="#9E6139"/>
<path d="M8.72851 8.12649C8.77543 8.12649 8.81347 8.10763 8.81347 8.08436C8.81347 8.0611 8.77543 8.04224 8.72851 8.04224C8.68159 8.04224 8.64355 8.0611 8.64355 8.08436C8.64355 8.10763 8.68159 8.12649 8.72851 8.12649Z" fill="#50311D"/>
<path d="M8.71341 8.09729C8.73554 8.09729 8.75348 8.0884 8.75348 8.07745C8.75348 8.0665 8.73554 8.05762 8.71341 8.05762C8.69128 8.05762 8.67334 8.0665 8.67334 8.07745C8.67334 8.0884 8.69128 8.09729 8.71341 8.09729Z" fill="#9E6139"/>
<path d="M11.1396 8.39602C11.1866 8.39602 11.2246 8.37716 11.2246 8.3539C11.2246 8.33063 11.1866 8.31177 11.1396 8.31177C11.0927 8.31177 11.0547 8.33063 11.0547 8.3539C11.0547 8.37716 11.0927 8.39602 11.1396 8.39602Z" fill="#50311D"/>
<path d="M11.1245 8.36682C11.1467 8.36682 11.1646 8.35794 11.1646 8.34698C11.1646 8.33603 11.1467 8.32715 11.1245 8.32715C11.1024 8.32715 11.0845 8.33603 11.0845 8.34698C11.0845 8.35794 11.1024 8.36682 11.1245 8.36682Z" fill="#9E6139"/>
<path d="M7.93066 8.05593C7.97758 8.05593 8.01562 8.03707 8.01562 8.01381C8.01562 7.99054 7.97758 7.97168 7.93066 7.97168C7.88374 7.97168 7.8457 7.99054 7.8457 8.01381C7.8457 8.03707 7.88374 8.05593 7.93066 8.05593Z" fill="#50311D"/>
<path d="M7.91507 8.02648C7.9372 8.02648 7.95514 8.0176 7.95514 8.00665C7.95514 7.9957 7.9372 7.98682 7.91507 7.98682C7.89294 7.98682 7.875 7.9957 7.875 8.00665C7.875 8.0176 7.89294 8.02648 7.91507 8.02648Z" fill="#9E6139"/>
<path d="M8.60595 8.22586C8.65288 8.22586 8.69091 8.207 8.69091 8.18373C8.69091 8.16046 8.65288 8.1416 8.60595 8.1416C8.55903 8.1416 8.521 8.16046 8.521 8.18373C8.521 8.207 8.55903 8.22586 8.60595 8.22586Z" fill="#50311D"/>
<path d="M8.59085 8.19665C8.61298 8.19665 8.63092 8.18777 8.63092 8.17682C8.63092 8.16586 8.61298 8.15698 8.59085 8.15698C8.56872 8.15698 8.55078 8.16586 8.55078 8.17682C8.55078 8.18777 8.56872 8.19665 8.59085 8.19665Z" fill="#9E6139"/>
<path d="M10.9702 8.2803C11.0171 8.2803 11.0552 8.26144 11.0552 8.23817C11.0552 8.21491 11.0171 8.19604 10.9702 8.19604C10.9233 8.19604 10.8853 8.21491 10.8853 8.23817C10.8853 8.26144 10.9233 8.2803 10.9702 8.2803Z" fill="#50311D"/>
<path d="M10.9551 8.25109C10.9772 8.25109 10.9952 8.24221 10.9952 8.23126C10.9952 8.22031 10.9772 8.21143 10.9551 8.21143C10.933 8.21143 10.915 8.22031 10.915 8.23126C10.915 8.24221 10.933 8.25109 10.9551 8.25109Z" fill="#9E6139"/>
<path d="M8.47657 8.12669C8.53941 8.12669 8.59035 8.10145 8.59035 8.0703C8.59035 8.03916 8.53941 8.01392 8.47657 8.01392C8.41373 8.01392 8.36279 8.03916 8.36279 8.0703C8.36279 8.10145 8.41373 8.12669 8.47657 8.12669Z" fill="#50311D"/>
<path d="M8.45597 8.08755C8.48559 8.08755 8.5096 8.07566 8.5096 8.06099C8.5096 8.04632 8.48559 8.03442 8.45597 8.03442C8.42635 8.03442 8.40234 8.04632 8.40234 8.06099C8.40234 8.07566 8.42635 8.08755 8.45597 8.08755Z" fill="#9E6139"/>
<path d="M11.7585 8.54335C11.8374 8.54335 11.9013 8.51168 11.9013 8.4726C11.9013 8.43353 11.8374 8.40186 11.7585 8.40186C11.6797 8.40186 11.6157 8.43353 11.6157 8.4726C11.6157 8.51168 11.6797 8.54335 11.7585 8.54335Z" fill="#50311D"/>
<path d="M11.7324 8.49442C11.7696 8.49442 11.7997 8.47949 11.7997 8.46108C11.7997 8.44266 11.7696 8.42773 11.7324 8.42773C11.6952 8.42773 11.665 8.44266 11.665 8.46108C11.665 8.47949 11.6952 8.49442 11.7324 8.49442Z" fill="#9E6139"/>
<path d="M13.2341 9.26088C13.313 9.26088 13.3769 9.22921 13.3769 9.19013C13.3769 9.15106 13.313 9.11938 13.2341 9.11938C13.1552 9.11938 13.0913 9.15106 13.0913 9.19013C13.0913 9.22921 13.1552 9.26088 13.2341 9.26088Z" fill="#50311D"/>
<path d="M13.2075 9.2117C13.2447 9.2117 13.2748 9.19677 13.2748 9.17836C13.2748 9.15995 13.2447 9.14502 13.2075 9.14502C13.1703 9.14502 13.1401 9.15995 13.1401 9.17836C13.1401 9.19677 13.1703 9.2117 13.2075 9.2117Z" fill="#9E6139"/>
<path d="M13.6169 9.52947C13.7241 9.52947 13.811 9.48642 13.811 9.43331C13.811 9.38021 13.7241 9.33716 13.6169 9.33716C13.5097 9.33716 13.4229 9.38021 13.4229 9.43331C13.4229 9.48642 13.5097 9.52947 13.6169 9.52947Z" fill="#50311D"/>
<path d="M13.5812 9.46275C13.6318 9.46275 13.6727 9.44245 13.6727 9.41741C13.6727 9.39237 13.6318 9.37207 13.5812 9.37207C13.5307 9.37207 13.4897 9.39237 13.4897 9.41741C13.4897 9.44245 13.5307 9.46275 13.5812 9.46275Z" fill="#9E6139"/>
<path d="M12.0601 8.65623C12.1229 8.65623 12.1739 8.63099 12.1739 8.59985C12.1739 8.5687 12.1229 8.54346 12.0601 8.54346C11.9972 8.54346 11.9463 8.5687 11.9463 8.59985C11.9463 8.63099 11.9972 8.65623 12.0601 8.65623Z" fill="#50311D"/>
<path d="M12.0395 8.61709C12.0691 8.61709 12.0931 8.6052 12.0931 8.59053C12.0931 8.57586 12.0691 8.56396 12.0395 8.56396C12.0098 8.56396 11.9858 8.57586 11.9858 8.59053C11.9858 8.6052 12.0098 8.61709 12.0395 8.61709Z" fill="#9E6139"/>
<path d="M7.88383 6.10002C7.64775 6.09562 7.41101 6.06262 7.1782 6.00352C6.94557 5.94409 6.71464 5.85789 6.5013 5.72002C6.39504 5.65098 6.29399 5.56796 6.20497 5.46786C6.11569 5.36813 6.04388 5.24689 5.996 5.1156C5.9482 4.98429 5.92586 4.84258 5.929 4.70468C5.92867 4.67 5.93333 4.63652 5.93556 4.60224L5.93996 4.55102C5.94226 4.53425 5.94562 4.51789 5.94842 4.50129L5.96679 4.40187C5.97702 4.3666 5.98535 4.32985 5.99933 4.29516C6.02375 4.22408 6.05994 4.15774 6.09912 4.09418C6.14086 4.03308 6.18618 3.97372 6.23731 3.92343C6.33814 3.81943 6.45304 3.74196 6.56807 3.67544C6.79962 3.54335 7.03902 3.46508 7.2743 3.39766C7.7461 3.26741 8.213 3.19805 8.66414 3.10876C8.88948 3.06575 9.11113 3.01866 9.3208 2.9568C9.52997 2.89701 9.73025 2.8198 9.88411 2.71494C9.96194 2.66334 10.024 2.60388 10.0705 2.5389C10.1155 2.47323 10.1465 2.40131 10.1612 2.31764C10.1747 2.2339 10.1752 2.13773 10.1574 2.0605C10.1404 1.98137 10.1076 1.91186 10.0518 1.84923C9.99649 1.78691 9.92132 1.72963 9.83203 1.68254C9.74344 1.63467 9.64292 1.59628 9.53869 1.56126C9.32889 1.49297 9.10255 1.44358 8.87375 1.39097C8.64523 1.33651 8.41005 1.28415 8.18396 1.18596C8.07211 1.13642 7.96028 1.07349 7.87379 0.979864C7.78711 0.886631 7.74141 0.759318 7.75323 0.641602C7.76415 0.699591 7.78463 0.754513 7.81462 0.801622C7.84469 0.848821 7.88418 0.8877 7.9287 0.918786C8.01757 0.981782 8.12426 1.01653 8.23268 1.04264C8.45151 1.09232 8.68206 1.10768 8.91498 1.12729C9.14825 1.14733 9.38585 1.16628 9.62929 1.21602C9.75115 1.2407 9.87439 1.27419 9.99806 1.32512C10.1211 1.37544 10.2469 1.44549 10.3563 1.54986C10.4667 1.65247 10.5529 1.79342 10.5969 1.94003C10.6202 2.01338 10.6317 2.08761 10.6379 2.16002C10.6443 2.23252 10.6428 2.3046 10.6361 2.37915C10.6214 2.52743 10.5711 2.68134 10.4883 2.81159C10.4057 2.94205 10.2982 3.04943 10.1852 3.13287C10.0722 3.21778 9.95261 3.28203 9.83384 3.33551C9.71476 3.38902 9.59531 3.43231 9.47636 3.47009C9.23783 3.54345 9.00133 3.59521 8.76744 3.64171C8.53317 3.68576 8.30169 3.72459 8.07344 3.76439C7.845 3.80255 7.62019 3.8448 7.40274 3.89518C7.18598 3.94586 6.97522 4.00875 6.79275 4.09664C6.70222 4.14097 6.61863 4.19203 6.55141 4.25144C6.51596 4.28017 6.48799 4.31277 6.46008 4.34548C6.43551 4.37977 6.41107 4.4144 6.39441 4.45318C6.38429 4.47187 6.37883 4.49238 6.37028 4.51243L6.34991 4.58418C6.34655 4.59616 6.34256 4.60818 6.33961 4.62015L6.33318 4.65601C6.3294 4.67987 6.32275 4.70414 6.32083 4.72793C6.3089 4.82376 6.31513 4.91784 6.3353 5.01004C6.37567 5.19462 6.49782 5.36626 6.66045 5.5075C6.82224 5.6508 7.02058 5.76505 7.22831 5.86155C7.43718 5.95683 7.6567 6.03782 7.88383 6.10002Z" fill="#E5D3BD"/>
<path d="M8.3343 5.95299C8.22035 5.92524 8.10967 5.88337 8.00263 5.83186C7.8961 5.77946 7.79373 5.71411 7.70546 5.62702C7.66162 5.58336 7.62171 5.53366 7.59038 5.47694C7.55898 5.42039 7.53792 5.35609 7.53021 5.28966C7.52243 5.22326 7.52767 5.15526 7.54371 5.09145C7.55854 5.02403 7.59473 4.95776 7.63903 4.90532C7.72981 4.79936 7.84588 4.73687 7.95875 4.6866C8.0727 4.63687 8.1884 4.59978 8.30378 4.56728C8.53456 4.50187 8.7656 4.4568 8.99284 4.40713C9.22024 4.35935 9.44471 4.30826 9.65909 4.24298C9.87179 4.17667 10.0787 4.09338 10.2343 3.97174C10.3117 3.91096 10.373 3.84093 10.4144 3.76336C10.4614 3.67377 10.4947 3.58209 10.5018 3.4988C10.5088 3.41522 10.4926 3.34316 10.4503 3.27432C10.4088 3.20531 10.3386 3.14136 10.256 3.08612C10.0887 2.97532 9.8793 2.89581 9.66561 2.83294C9.4509 2.76928 9.2277 2.71991 9.00199 2.67715C8.77634 2.63276 8.54742 2.59717 8.31713 2.55855C8.06894 2.51826 7.8286 2.43602 7.60936 2.31448C7.39067 2.1931 7.18928 2.03054 7.04137 1.81923C6.96823 1.71363 6.91001 1.59528 6.87624 1.46908C6.84217 1.34316 6.8339 1.20997 6.8524 1.08255C6.87149 0.954935 6.91633 0.834677 6.97603 0.726325C7.03576 0.617712 7.10936 0.519703 7.19192 0.432164C7.35744 0.257226 7.54968 0.116728 7.75288 0C7.66327 0.0756141 7.57553 0.152609 7.49486 0.235981C7.41321 0.318093 7.33729 0.405065 7.27054 0.497183C7.13816 0.680537 7.03896 0.889243 7.03194 1.10093C7.01904 1.31149 7.09889 1.51411 7.23395 1.67516C7.36763 1.83823 7.54778 1.96504 7.74206 2.05948C7.93759 2.15287 8.1487 2.21415 8.3629 2.23989C8.59498 2.26758 8.82843 2.29918 9.06267 2.33684C9.29666 2.3764 9.53143 2.42261 9.76554 2.48878C9.88248 2.52228 9.99928 2.56093 10.1153 2.60809C10.2312 2.65552 10.347 2.71133 10.4579 2.78644C10.5678 2.86162 10.6774 2.95587 10.7572 3.08769C10.7966 3.15303 10.8277 3.22683 10.8442 3.30401C10.8607 3.38117 10.8631 3.4601 10.8549 3.53456C10.8382 3.68445 10.7835 3.81419 10.7205 3.9298C10.6501 4.05796 10.5478 4.16186 10.4393 4.24178C10.2197 4.40182 9.97896 4.48168 9.74473 4.54431C9.50947 4.60637 9.27448 4.64343 9.04253 4.67967C8.81041 4.7143 8.58018 4.74519 8.35623 4.78725C8.24449 4.80877 8.13456 4.8345 8.03089 4.86976C7.92814 4.9055 7.82965 4.95102 7.75954 5.01639C7.72527 5.04996 7.69877 5.08604 7.68337 5.13185C7.66614 5.17994 7.65761 5.22983 7.65843 5.27991C7.65977 5.38015 7.70434 5.48029 7.77304 5.56619C7.84167 5.65273 7.93163 5.72524 8.02713 5.78914C8.12306 5.85307 8.22651 5.90748 8.3343 5.95299Z" fill="#E5D3BD"/>
</svg>
