<svg width="31" height="32" viewBox="0 0 31 32" fill="none" xmlns="http://www.w3.org/2000/svg">
<g clip-path="url(#clip0_643_520)">
<path d="M15.5 0.666504C6.93625 0.666504 0 7.7065 0 16.3892C0 23.3372 4.44075 29.2292 10.5981 31.3065C11.3731 31.4545 11.6573 30.9678 11.6573 30.5505C11.6573 30.1772 11.6444 29.1878 11.6379 27.8772C7.32633 28.8252 6.417 25.7678 6.417 25.7678C5.71175 23.9532 4.69262 23.4678 4.69262 23.4678C3.28858 22.4932 4.80113 22.5132 4.80113 22.5132C6.35758 22.6225 7.17521 24.1332 7.17521 24.1332C8.55729 26.5372 10.8035 25.8425 11.6896 25.4412C11.8291 24.4238 12.2282 23.7318 12.6713 23.3385C9.22896 22.9452 5.611 21.5932 5.611 15.5692C5.611 13.8532 6.21162 12.4505 7.20621 11.3505C7.03183 10.9532 6.50871 9.3545 7.34183 7.18917C7.34183 7.18917 8.63996 6.76784 11.6043 8.80117C12.8443 8.45184 14.1618 8.2785 15.4793 8.2705C16.7968 8.2785 18.1143 8.45184 19.3543 8.80117C22.2993 6.76784 23.5975 7.18917 23.5975 7.18917C24.4306 9.3545 23.9075 10.9532 23.7525 11.3505C24.7406 12.4505 25.3412 13.8532 25.3412 15.5692C25.3412 21.6092 21.7181 22.9385 18.2693 23.3252C18.8118 23.7972 19.3156 24.7612 19.3156 26.2345C19.3156 28.3385 19.2962 30.0292 19.2962 30.5398C19.2962 30.9518 19.5675 31.4438 20.3618 31.2865C26.5631 29.2225 31 23.3265 31 16.3892C31 7.7065 24.0599 0.666504 15.5 0.666504Z" fill="#373737"/>
</g>
<defs>
<clipPath id="clip0_643_520">
<rect width="31" height="32" fill="white"/>
</clipPath>
</defs>
</svg>
