<svg width="122" height="45" viewBox="0 0 122 45" fill="none" xmlns="http://www.w3.org/2000/svg">
<path d="M115.527 0.00317383C118.287 -0.0931985 120.603 2.06667 120.699 4.82642L121.56 29.4719C121.656 32.2317 119.497 34.5474 116.737 34.6438L14.3086 38.22C9.4871 41.8797 3.1218 43.9042 0 44.5286C5.16867 40.8367 6.42643 35.1596 6.70605 31.0442L5.93066 8.83423C5.8343 6.07462 7.99338 3.75894 10.7529 3.66235L115.527 0.00317383Z" fill="#FF9100"/>
<path d="M22.8676 15.5383L23.2106 25.3603L20.8181 25.4439L20.6769 21.4003L16.9551 21.5303L17.0963 25.5738L14.7038 25.6574L14.3608 15.8354L16.7533 15.7518L16.8877 19.5995L20.6094 19.4695L20.4751 15.6219L22.8676 15.5383ZM28.4955 25.2878C27.7307 25.3145 27.0347 25.1754 26.4077 24.8704C25.79 24.5651 25.2933 24.1155 24.9177 23.5216C24.5514 22.9274 24.3541 22.2245 24.3258 21.413C24.2978 20.6108 24.4504 19.9004 24.7837 19.2817C25.1166 18.6537 25.5852 18.1657 26.1894 17.8178C26.7937 17.4698 27.4782 17.2825 28.2431 17.2557C29.0079 17.229 29.7039 17.3682 30.3309 17.6731C30.9579 17.9781 31.4594 18.4322 31.8354 19.0355C32.211 19.6294 32.4128 20.3274 32.4408 21.1296C32.4688 21.9318 32.3117 22.647 31.9694 23.2754C31.6361 23.894 31.1627 24.3775 30.5492 24.7258C29.9449 25.0738 29.2604 25.2611 28.4955 25.2878ZM28.4232 23.2171C28.8803 23.2011 29.2615 23.0197 29.5669 22.6728C29.8817 22.3257 30.0281 21.8396 30.0063 21.2146C29.9845 20.5897 29.8091 20.1148 29.4803 19.7901C29.1607 19.4651 28.7724 19.3105 28.3154 19.3265C27.849 19.3428 27.4678 19.5242 27.1717 19.8707C26.8753 20.2079 26.7381 20.6937 26.7603 21.328C26.7821 21.9529 26.9481 22.4281 27.2583 22.7535C27.5779 23.0785 27.9662 23.2331 28.4232 23.2171ZM37.2801 22.6276L38.7786 16.9999L41.3251 16.911L38.8274 24.815L35.8752 24.9181L32.8322 17.2076L35.3927 17.1181L37.2801 22.6276ZM49.8236 20.3965C49.8314 20.6204 49.8255 20.8541 49.806 21.0976L44.3913 21.2866C44.4456 21.7704 44.6125 22.1381 44.8921 22.3898C45.1807 22.6319 45.5256 22.7459 45.9267 22.7319C46.5237 22.7111 46.9299 22.4447 47.1455 21.9329L49.692 21.844C49.5793 22.3616 49.3576 22.8316 49.0268 23.2541C48.7053 23.6762 48.2922 24.0128 47.7873 24.2639C47.2824 24.515 46.7128 24.6517 46.0786 24.6738C45.3137 24.7005 44.6271 24.5611 44.0187 24.2555C43.4103 23.9498 42.9277 23.4997 42.5707 22.9052C42.2137 22.3106 42.0211 21.6076 41.9927 20.796C41.9644 19.9845 42.1029 19.2699 42.4082 18.6522C42.7228 18.0342 43.1729 17.5516 43.7585 17.2042C44.344 16.8569 45.0239 16.6697 45.7981 16.6427C46.5536 16.6163 47.2308 16.7514 47.8295 17.0481C48.4282 17.3447 48.9011 17.7811 49.248 18.3574C49.6044 18.9333 49.7962 19.613 49.8236 20.3965ZM47.3531 19.8524C47.3387 19.442 47.1874 19.1204 46.8991 18.8877C46.6108 18.6549 46.2568 18.5459 45.8371 18.5605C45.436 18.5745 45.0996 18.703 44.8279 18.946C44.5655 19.1886 44.4092 19.5256 44.3589 19.957L47.3531 19.8524ZM53.3918 17.7924C53.6566 17.3536 53.9947 17.0055 54.406 16.7484C54.8169 16.4819 55.2789 16.3397 55.7919 16.3217L55.8804 18.8542L55.2228 18.8772C54.6258 18.898 54.1826 19.0442 53.8933 19.3158C53.6036 19.5781 53.47 20.031 53.4925 20.6746L53.619 24.2984L51.2265 24.382L50.9538 16.5747L53.3464 16.4912L53.3918 17.7924ZM63.7338 24.0573C62.969 24.084 62.273 23.9449 61.646 23.6399C61.0283 23.3346 60.5316 22.885 60.156 22.2911C59.7897 21.6968 59.5924 20.9939 59.5641 20.1824C59.536 19.3803 59.6887 18.6698 60.0219 18.0512C60.3549 17.4232 60.8235 16.9352 61.4277 16.5872C62.0319 16.2392 62.7165 16.0519 63.4814 16.0252C64.2462 15.9985 64.9422 16.1376 65.5692 16.4426C66.1962 16.7476 66.6977 17.2017 67.0737 17.8049C67.4493 18.3988 67.6511 19.0969 67.6791 19.8991C67.7071 20.7012 67.55 21.4165 67.2077 22.0448C66.8744 22.6635 66.401 23.147 65.7875 23.4953C65.1832 23.8432 64.4987 24.0306 63.7338 24.0573ZM63.6615 21.9865C64.1186 21.9706 64.4998 21.7892 64.8052 21.4423C65.12 21.0951 65.2664 20.609 65.2446 19.9841C65.2228 19.3591 65.0474 18.8843 64.7186 18.5596C64.399 18.2345 64.0107 18.08 63.5537 18.0959C63.0873 18.1122 62.706 18.2936 62.41 18.6402C62.1135 18.9774 61.9764 19.4631 61.9986 20.0974C62.0204 20.7224 62.1864 21.1975 62.4966 21.5229C62.8162 21.848 63.2045 22.0025 63.6615 21.9865ZM73.5662 15.701C74.4804 15.6691 75.2183 15.9422 75.7802 16.5203C76.351 17.0887 76.6545 17.8906 76.6907 18.926L76.85 23.4872L74.4714 23.5702L74.3234 19.3308C74.3051 18.8085 74.1557 18.4075 73.8751 18.1277C73.5945 17.848 73.2257 17.7162 72.7686 17.7321C72.3116 17.7481 71.9529 17.9054 71.6925 18.204C71.4321 18.5026 71.311 18.913 71.3292 19.4354L71.4773 23.6748L69.0847 23.7584L68.8121 15.9511L71.2046 15.8676L71.2408 16.9029C71.4712 16.5493 71.7883 16.2674 72.1918 16.0572C72.5951 15.8377 73.0532 15.719 73.5662 15.701ZM92.2578 13.1151L92.6008 22.9372L90.2082 23.0207L90.0025 17.1303L88.0116 23.0974L86.0807 23.1648L83.6639 17.3376L83.8701 23.242L81.4775 23.3256L81.1346 13.5036L83.9608 13.4049L86.9546 20.1085L89.4455 13.2134L92.2578 13.1151ZM101.54 18.5905C101.548 18.8144 101.542 19.0481 101.523 19.2916L96.1078 19.4807C96.1621 19.9644 96.329 20.3321 96.6086 20.5839C96.8973 20.8259 97.2421 20.94 97.6432 20.926C98.2402 20.9051 98.6465 20.6388 98.8621 20.1269L101.409 20.038C101.296 20.5556 101.074 21.0256 100.743 21.4481C100.422 21.8702 100.009 22.2068 99.5038 22.458C98.9989 22.7091 98.4294 22.8457 97.7951 22.8678C97.0302 22.8945 96.3436 22.7551 95.7352 22.4495C95.1268 22.1438 94.6442 21.6938 94.2872 21.0992C93.9302 20.5046 93.7376 19.8016 93.7093 18.9901C93.6809 18.1786 93.8194 17.464 94.1247 16.8463C94.4393 16.2282 94.8894 15.7456 95.475 15.3983C96.0605 15.0509 96.7404 14.8638 97.5146 14.8367C98.2702 14.8103 98.9473 14.9455 99.546 15.2421C100.145 15.5387 100.618 15.9751 100.965 16.5514C101.321 17.1273 101.513 17.807 101.54 18.5905ZM99.0696 18.0464C99.0553 17.636 98.9039 17.3144 98.6156 17.0817C98.3273 16.8489 97.9733 16.7399 97.5536 16.7545C97.1525 16.7685 96.8161 16.897 96.5444 17.14C96.2821 17.3826 96.1257 17.7196 96.0754 18.151L99.0696 18.0464ZM107.031 22.5453C106.611 22.56 106.262 22.4508 105.983 22.2177C105.713 21.975 105.572 21.6717 105.559 21.3079C105.546 20.9348 105.666 20.6178 105.918 20.3568C106.18 20.0955 106.521 19.9575 106.94 19.9429C107.351 19.9286 107.691 20.0428 107.961 20.2855C108.24 20.5279 108.386 20.8356 108.399 21.2087C108.412 21.5725 108.288 21.8851 108.026 22.1463C107.773 22.398 107.442 22.531 107.031 22.5453ZM106.832 16.8508C106.413 16.8654 106.063 16.7562 105.784 16.5232C105.514 16.2804 105.373 15.9772 105.36 15.6134C105.347 15.2403 105.467 14.9233 105.719 14.6623C105.981 14.401 106.322 14.263 106.741 14.2484C107.152 14.234 107.492 14.3482 107.762 14.591C108.041 14.8334 108.187 15.1411 108.201 15.5142C108.213 15.878 108.089 16.1905 107.827 16.4518C107.574 16.7035 107.243 16.8364 106.832 16.8508ZM109.343 25.2803L109.335 25.0564C110.234 24.0538 110.916 22.8812 111.383 21.5388C111.85 20.1964 112.058 18.8116 112.009 17.3845C111.958 15.948 111.644 14.5628 111.065 13.2289C110.486 11.8856 109.69 10.746 108.676 9.81013L108.668 9.58627L111.019 9.50419C112.01 10.3474 112.792 11.4595 113.363 12.8404C113.934 14.212 114.247 15.7 114.303 17.3043C114.359 18.89 114.158 20.3772 113.703 21.766C113.247 23.1548 112.582 24.2987 111.707 25.1977L109.343 25.2803Z" fill="black"/>
</svg>
