<svg width="38" height="30" viewBox="0 0 38 30" fill="none" xmlns="http://www.w3.org/2000/svg">
<path d="M3.64724 9.20404C4.12794 9.54328 5.57693 10.5508 7.99428 12.2261C10.4117 13.9015 12.2636 15.1914 13.5501 16.0961C13.6915 16.1953 13.9917 16.4108 14.4511 16.7431C14.9106 17.0756 15.2923 17.3442 15.5961 17.5492C15.9001 17.754 16.2676 17.9839 16.699 18.2383C17.1302 18.4925 17.5367 18.6837 17.9184 18.8102C18.3002 18.9379 18.6536 19.0011 18.9786 19.0011H19H19.0214C19.3464 19.0011 19.7 18.9378 20.0817 18.8102C20.4633 18.6837 20.8702 18.4922 21.301 18.2383C21.7321 17.9836 22.0996 17.754 22.4036 17.5492C22.7076 17.3442 23.0891 17.0756 23.5487 16.7431C24.008 16.4105 24.3086 16.1953 24.45 16.0961C25.7503 15.1914 29.0587 12.8939 34.3739 9.2036C35.4059 8.48285 36.268 7.61317 36.9606 6.59516C37.6537 5.57759 37.9999 4.5101 37.9999 3.39329C37.9999 2.46003 37.664 1.66114 36.9924 0.996698C36.3209 0.332109 35.5256 0 34.607 0H3.39271C2.30424 0 1.46659 0.367541 0.87991 1.10262C0.293304 1.83785 0 2.75685 0 3.85955C0 4.75025 0.388893 5.71545 1.16631 6.75456C1.94365 7.79375 2.7709 8.61032 3.64724 9.20404Z" fill="#D3D3D3"/>
<path d="M35.8791 11.473C31.2427 14.6114 27.7222 17.0505 25.3192 18.7897C24.5135 19.3833 23.8598 19.8466 23.3578 20.1787C22.8558 20.5109 22.1881 20.8502 21.3539 21.1965C20.52 21.5432 19.7428 21.7161 19.0217 21.7161H19H18.9787C18.2578 21.7161 17.4801 21.5432 16.6462 21.1965C15.8122 20.8502 15.1442 20.5109 14.6423 20.1787C14.1406 19.8466 13.4867 19.3833 12.681 18.7897C10.7724 17.3901 7.25943 14.9509 2.14195 11.473C1.33595 10.9361 0.622035 10.3207 0 9.62799V26.4663C0 27.4 0.332074 28.1984 0.996593 28.863C1.66096 29.5277 2.45984 29.86 3.39293 29.86H34.6073C35.5402 29.86 36.339 29.5277 37.0034 28.863C37.6681 28.1982 38 27.4001 38 26.4663V9.62799C37.392 10.3063 36.6854 10.9217 35.8791 11.473Z" fill="#D3D3D3"/>
</svg>
