<svg width="20" height="20" viewBox="0 0 20 20" fill="none" xmlns="http://www.w3.org/2000/svg">
<g clip-path="url(#clip0_729_227)">
<path d="M17.4465 4.88338C12.4037 -0.178727 12.7397 0.144302 12.643 0.0873864C12.4452 -0.0304115 12.9524 0.00498893 4.53125 0.00498893C3.34641 0.00498893 2.38281 0.971481 2.38281 2.15953V17.8454C2.38281 19.0333 3.34641 20 4.53125 20H15.4688C16.6535 20 17.6172 19.0333 17.6172 17.8454V5.29659C17.6172 5.14156 17.5559 4.99309 17.4465 4.88338Z" fill="#FED32D"/>
<path d="M17.4464 4.88348C12.4039 -0.178472 12.7399 0.144404 12.643 0.0874885C12.5055 0.00539616 12.7094 -0.00238584 10 0.000818505V20.0001H15.4688C16.6534 20.0001 17.6172 19.0334 17.6172 17.8455V5.29669C17.6172 5.14166 17.5559 4.99319 17.4464 4.88348Z" fill="#FDC334"/>
<path d="M17.6172 5.29663H14.1925C13.1715 5.29663 12.3438 4.47495 12.3438 3.46115V0.00488281C12.45 0.00488281 12.5531 0.0338746 12.643 0.0872803C15.5042 2.92771 14.4089 1.83411 17.4464 4.88343C17.5559 4.99314 17.6172 5.14161 17.6172 5.29663Z" fill="#FD7B29"/>
<path d="M13.373 8.25789L8.68546 9.43434C8.42484 9.4998 8.24219 9.73387 8.24219 10.0026V12.9462H7.65625C6.70166 12.9462 5.89844 13.716 5.89844 14.7133C5.89844 15.6822 6.68701 16.4706 7.65625 16.4706C8.62549 16.4706 9.41406 15.6822 9.41406 14.7133C9.41406 14.2926 9.41406 10.8847 9.41406 10.4594L12.9297 9.57701V11.7697H12.3438C11.3745 11.7697 10.5859 12.558 10.5859 13.5271C10.5859 14.5232 11.3879 15.2942 12.3438 15.2942C13.313 15.2942 14.1016 14.5059 14.1016 13.5368C14.1016 13.4624 14.1016 8.97154 14.1016 8.82613C14.1016 8.44466 13.7424 8.16512 13.373 8.25789Z" fill="#DB166C"/>
<path d="M14.1016 8.82617V13.5367C14.1016 14.5057 13.3128 15.2942 12.3438 15.2942C11.3879 15.2942 10.5859 14.5232 10.5859 13.527C10.5859 12.5582 11.3747 11.7696 12.3438 11.7696H12.9297V9.57721L10 10.3125V9.10434L13.3731 8.25794C13.7422 8.16501 14.1016 8.4447 14.1016 8.82617Z" fill="#BF0C4C"/>
</g>
<defs>
<clipPath id="clip0_729_227">
<rect width="20" height="20" fill="white"/>
</clipPath>
</defs>
</svg>
